<!-- Generator: Adobe Illustrator 21.0.2, SVG Export Plug-In  -->
<svg version="1.1"
	 xmlns="http://www.w3.org/2000/svg" xmlns:xlink="http://www.w3.org/1999/xlink" xmlns:a="http://ns.adobe.com/AdobeSVGViewerExtensions/3.0/"
	 x="0px" y="0px" width="175.6px" height="160.8px" viewBox="0 0 175.6 160.8" style="enable-background:new 0 0 175.6 160.8;"
	 xml:space="preserve">
<style type="text/css">
	.st0{fill:#828282;}
	.st1{fill:#939393;}
	.st2{fill:#ADADAD;}
	.st3{opacity:0.8;fill:#666666;}
	.st4{fill:#232323;}
	.st5{fill:#E2E2E2;}
	.st6{fill:#33776C;}
	.st7{fill:#515151;}
	.st8{fill:#47A093;}
	.st9{fill:#898989;}
	.st10{fill:#5CB7A8;}
	.st11{opacity:0.5;fill:#B7B7B7;}
	.st12{fill:#397A6F;}
	.st13{fill:#C1C1C1;}
	.st14{fill:#EDEDED;}
	.st15{fill:#666666;}
	.st16{fill:#CECECE;}
	.st17{fill:#EFEFEF;}
	.st18{fill:#FFD255;}
	.st19{fill:#FFFFFF;}
	.st20{fill:#7A7A7A;}
	.st21{fill:#878787;}
</style>
<defs>
</defs>
<g>
	<g>
		<g>
			<path class="st0" d="M103.7,137.1h53v-0.9l-54.1-2.9C103,134.2,103.4,135.5,103.7,137.1z"/>
			<path class="st1" d="M103.7,136.2h53c-1.8-1.7-3.3-3-4.3-3.8h-49.8C103,133.3,103.4,134.6,103.7,136.2z"/>
		</g>
		<g>
			<path class="st0" d="M104.7,143.5h57.8v-0.9l-58.4-3.6C104.3,140.3,104.6,141.8,104.7,143.5z"/>
			<path class="st1" d="M104.7,142.6h57.8c-1.3-1.7-2.6-3.2-3.9-4.5h-54.5C104.3,139.4,104.6,140.9,104.7,142.6z"/>
		</g>
		<g>
			<path class="st0" d="M105.2,151h62.3v-0.9l-62.5-4.5C105,147.2,105.1,149,105.2,151z"/>
			<path class="st1" d="M105.2,150.1h62.3c-1-1.9-2.2-3.8-3.3-5.4h-59.2C105,146.3,105.1,148.1,105.2,150.1z"/>
		</g>
		<g>
			<path class="st1" d="M105.1,159h65.8c-0.5-2.2-1.3-4.3-2.2-6.3h-63.5C105.2,154.7,105.2,156.8,105.1,159z"/>
			<path class="st0" d="M105,159.8h65.8l0.1-0.7l-65.7-5.6C105.2,155.4,105.1,157.5,105,159.8z"/>
			<path class="st1" d="M105,159h65.8c-0.5-2.2-1.3-4.3-2.2-6.3h-63.5C105.2,154.7,105.1,156.8,105,159z"/>
		</g>
		<g>
			<path class="st0" d="M105.5,131.2c0,0,4,9.7,3.4,29.7c2.3,0,3,0,3,0v-5c0,0-1.8-23.7-6.9-25.6
				C101.8,129.7,105.5,131.2,105.5,131.2z"/>
			<path class="st2" d="M105.9,132.4c0.1,0.2,0.2,0.5,0.3,0.8c0.1,0.3,0.2,0.6,0.3,0.9c0.2,0.6,0.4,1.2,0.6,1.9
				c0.2,0.7,0.4,1.4,0.6,2.2c0.2,0.8,0.4,1.6,0.5,2.4c0.1,0.8,0.3,1.6,0.4,2.5c0.1,0.8,0.2,1.7,0.3,2.5c0.1,0.8,0.2,1.6,0.2,2.4
				c0,0.8,0.1,1.5,0.1,2.3c0,0.7,0,1.4,0,2c0,1.3-0.1,2.3-0.1,3c0,0.2,0,0.4,0,0.6h2.7c0-0.1,0-0.3,0-0.5c0-0.8,0.1-1.9,0-3.2
				c0-0.7,0-1.4-0.1-2.1c0-0.8-0.1-1.5-0.2-2.4c-0.1-0.8-0.1-1.7-0.3-2.5c-0.1-0.9-0.2-1.7-0.4-2.6c-0.2-0.9-0.3-1.7-0.5-2.6
				c-0.1-0.9-0.4-1.7-0.6-2.5c-0.2-0.8-0.4-1.6-0.6-2.3c-0.2-0.7-0.5-1.4-0.7-2c-0.1-0.3-0.2-0.6-0.3-0.9c-0.1-0.3-0.2-0.5-0.3-0.8
				c-0.2-0.5-0.4-0.9-0.5-1.3c-0.3-0.7-0.4-1.1-0.4-1.1l-2.1,0.8c0,0,0.2,0.4,0.4,1.1C105.6,131.5,105.8,131.9,105.9,132.4z"/>
		</g>
		<g>
			<path class="st0" d="M147.5,133.3c0,0,13.4,11.7,17,27.5c2.3,0,3,0,3,0v-5c0,0-13.1-21.5-18.2-23.4
				C146,131.9,147.5,133.3,147.5,133.3z"/>
			<path class="st2" d="M150.9,134.8c0.2,0.2,0.4,0.4,0.7,0.6c0.2,0.2,0.4,0.5,0.7,0.7c0.5,0.5,1,1,1.5,1.6c0.5,0.6,1,1.2,1.6,1.9
				c0.5,0.7,1.1,1.3,1.6,2.1c0.5,0.7,1,1.5,1.6,2.2c0.5,0.8,1,1.6,1.4,2.3c0.5,0.8,0.9,1.5,1.3,2.3c0.4,0.8,0.8,1.5,1.1,2.2
				c0.3,0.7,0.6,1.4,0.9,2c0.3,0.6,0.5,1.2,0.7,1.7c0.2,0.5,0.4,1,0.5,1.3c0,0,0,0,0,0h2.9c-0.1-0.2-0.2-0.5-0.4-1
				c-0.2-0.4-0.4-0.8-0.6-1.4c-0.2-0.5-0.5-1.1-0.8-1.8c-0.3-0.6-0.7-1.3-1-2.1c-0.4-0.7-0.8-1.5-1.3-2.2c-0.4-0.8-0.9-1.6-1.4-2.4
				c-0.5-0.8-1-1.6-1.5-2.4c-0.6-0.8-1.1-1.5-1.7-2.3c-0.5-0.8-1.2-1.5-1.7-2.1c-0.6-0.7-1.1-1.4-1.7-1.9c-0.6-0.6-1.1-1.1-1.6-1.7
				c-0.3-0.3-0.5-0.5-0.7-0.7c-0.2-0.2-0.5-0.4-0.7-0.6c-0.4-0.4-0.8-0.7-1.1-1c-0.6-0.5-1-0.9-1-0.9l-1.2,1.4c0,0,0.3,0.3,0.9,0.9
				C150.1,134,150.5,134.4,150.9,134.8z"/>
		</g>
	</g>
	<path class="st3" d="M0,87c0,0,78.7,19.9,82.6,54.3c5.4,9.5,74.5,6.1,74.2-1.5c-0.4-7.6-5.4-7.9-17.5-15.4
		C127.1,116.9,4.8,86.7,3.9,86.7C3,86.7,0,87,0,87z"/>
	<g>
		<g>
			<g>
				<rect x="6.8" y="75.4" class="st4" width="0.9" height="12.8"/>
				<g>
					<polyline class="st5" points="6.8,75.4 2.1,78 2.1,86.5 6.8,88.2 					"/>
					<polygon class="st2" points="2.1,85.6 2.1,86.8 6.8,88.2 6.8,86.4 					"/>
					<polyline class="st6" points="6.8,75.4 2.1,78 2.1,80.7 6.8,79.4 					"/>
					<polygon class="st4" points="2.8,78.2 2.2,78.5 2.2,80.3 2.8,80.1 					"/>
					<polygon class="st4" points="3,78.1 3,80 3.6,79.8 3.6,77.8 					"/>
					<polygon class="st4" points="4,77.6 4,79.7 4.6,79.5 4.6,77.3 					"/>
					<polygon class="st4" points="5,77.2 5,79.4 5.6,79.1 5.6,76.9 					"/>
					<polygon class="st4" points="5.9,76.7 5.9,79 6.6,78.8 6.6,76.4 					"/>
				</g>
			</g>
			<polygon class="st7" points="6.8,86 2.1,85.6 2.1,86 6.8,87 			"/>
			<polygon class="st6" points="6.8,85.7 2.1,85.3 2.1,85.9 6.8,86.8 			"/>
		</g>
		<g>
			<g>
				<rect x="13.8" y="71.6" class="st4" width="1.3" height="18.7"/>
				<g>
					<polyline class="st5" points="13.8,71.6 6.9,75.4 6.9,87.7 13.8,90.3 					"/>
					<polygon class="st2" points="6.9,86.4 6.9,88.2 13.8,90.3 13.8,87.6 					"/>
					<polyline class="st6" points="13.8,71.6 6.9,75.4 6.9,79.3 13.8,77.4 					"/>
					<polygon class="st4" points="7.9,75.6 7.1,76 7.1,78.7 7.9,78.5 					"/>
					<polygon class="st4" points="8.3,75.5 8.3,78.3 9.2,78 9.2,75 					"/>
					<polygon class="st4" points="9.7,74.8 9.7,77.8 10.7,77.5 10.7,74.4 					"/>
					<polygon class="st4" points="11.1,74.1 11.1,77.3 12.1,77 12.1,73.7 					"/>
					<polygon class="st4" points="12.6,73.5 12.6,76.8 13.5,76.5 13.5,73 					"/>
				</g>
			</g>
			<polygon class="st7" points="6.9,87.1 13.8,88.5 13.8,86.6 6.9,86 			"/>
			<polygon class="st6" points="6.9,86.8 13.8,88.2 13.8,86.3 6.9,85.7 			"/>
		</g>
		<g>
			<g>
				<rect x="24.3" y="65.7" class="st4" width="1.9" height="27.9"/>
				<g>
					<polyline class="st5" points="24.3,65.7 14.1,71.4 14.1,89.7 24.3,93.5 					"/>
					<polygon class="st2" points="14.1,87.8 14.1,90.5 24.3,93.5 24.3,89.5 					"/>
					<polyline class="st6" points="24.3,65.7 14.1,71.4 14.1,77.2 24.3,74.3 					"/>
					<polygon class="st4" points="15.6,71.7 14.4,72.2 14.4,76.3 15.6,75.9 					"/>
					<polygon class="st4" points="16.1,71.5 16.1,75.7 17.5,75.2 17.5,70.8 					"/>
					<polygon class="st4" points="18.2,70.5 18.2,75 19.7,74.5 19.7,69.8 					"/>
					<polygon class="st4" points="20.4,69.5 20.4,74.2 21.8,73.7 21.8,68.8 					"/>
					<polygon class="st4" points="22.5,68.5 22.5,73.5 23.9,73 23.9,67.8 					"/>
				</g>
			</g>
			<polygon class="st7" points="14.1,88.6 24.3,90.8 24.3,87.6 14.1,86.7 			"/>
			<polygon class="st6" points="14.1,88.2 24.3,90.2 24.3,87.2 14.1,86.3 			"/>
		</g>
		<g>
			<g>
				<rect x="39.9" y="57" class="st4" width="2.8" height="41.2"/>
				<g>
					<polyline class="st5" points="39.9,57 24.8,65.4 24.8,92.5 39.9,98.2 					"/>
					<polygon class="st2" points="24.8,89.7 24.8,93.6 39.9,98.2 39.9,92.3 					"/>
					<polyline class="st6" points="39.9,57 24.8,65.4 24.8,74 39.9,69.8 					"/>
					<polygon class="st4" points="26.9,65.9 25.2,66.7 25.2,72.7 26.9,72.1 					"/>
					<polygon class="st4" points="27.8,65.5 27.8,71.7 29.7,71.1 29.7,64.6 					"/>
					<polygon class="st4" points="30.8,64.1 30.8,70.7 33,70 33,63.1 					"/>
					<polygon class="st4" points="34,62.6 34,69.6 36.2,68.9 36.2,61.6 					"/>
					<polygon class="st4" points="37.1,61.1 37.1,68.5 39.3,67.8 39.3,60.1 					"/>
				</g>
			</g>
			<polygon class="st7" points="24.8,90.9 39.9,94.2 39.9,89 24.8,87.6 			"/>
			<polygon class="st6" points="24.8,90.3 39.9,93.3 39.9,88.6 24.8,87.3 			"/>
		</g>
		<g>
			<rect x="63.9" y="43.6" class="st4" width="4.3" height="63.8"/>
			<polyline class="st5" points="63.9,43.6 40.5,56.6 40.5,98.5 63.9,107.4 			"/>
			<polygon class="st2" points="40.5,90.8 40.5,98.5 63.9,107.4 63.9,90.4 			"/>
			<polygon class="st7" points="40.5,94.3 63.9,99.4 63.9,91.1 40.5,89 			"/>
			<polygon class="st6" points="40.5,93.4 63.9,98 63.9,90.7 40.5,88.7 			"/>
		</g>
		<polyline class="st6" points="63.9,43.6 40.5,56.6 40.5,69.9 63.9,63.4 		"/>
		<polygon class="st4" points="43.8,57.3 41.1,58.6 41.1,67.9 43.8,67 		"/>
		<polygon class="st4" points="45.2,56.8 45.2,66.4 48.2,65.4 48.2,55.4 		"/>
		<polygon class="st4" points="49.9,54.6 49.9,64.8 53.2,63.7 53.2,53 		"/>
		<polygon class="st4" points="54.9,52.3 54.9,63.1 58.2,62 58.2,50.7 		"/>
		<polygon class="st4" points="59.7,50 59.7,61.5 63,60.3 63,48.5 		"/>
		<g>
			<g>
				<path class="st5" d="M88.9,25.3l-10.6,2.3c0,0-11.4,12.8-13.5,15.6V96l31.2,4.1C93.7,68.7,88.9,25.3,88.9,25.3z"/>
				<path class="st2" d="M96.1,100.1L64.8,96v11.9c0,0,24.6,9,32.5,19.2C97.5,121.5,96.9,111.6,96.1,100.1z"/>
				<path class="st6" d="M64.8,90.7v8.2c0,0,24.6,2.9,32.5,13.1c0.1-5.3-0.4-13.4-1.2-22.6L64.8,90.7z"/>
				<path class="st7" d="M97.4,112.4c-7.3-10.6-32.6-14.1-32.6-14.1v1.5c0,0,28,6.3,32.6,15.9c0-1,0-2.5,0-3.7
					C97.4,111.9,97.4,112.4,97.4,112.4z"/>
				<path class="st6" d="M88.9,25.3L85.6,26V14.5c0,0-6.1,7.1-7.5,9c-0.4,0.6-0.7,2.6-0.8,5.1c-2.8,3.2-10.8,12.2-12.5,14.5v20
					l27.2-12.8C90.4,36.1,88.9,25.3,88.9,25.3z"/>
				<polygon class="st4" points="76.4,38.1 76.4,53.8 81.9,50.7 81.9,33.4 				"/>
				<polygon class="st4" points="74.7,39.5 70.7,43 70.7,57.1 74.7,54.8 				"/>
				<polygon class="st4" points="68.9,44.5 65.4,47.5 65.4,60 68.9,58.1 				"/>
			</g>
			<g>
				<path class="st8" d="M83.7,21.7c0,0,2.6,78.5,2.6,82.7c8.1,14.1,10.8,23.7,13.9,27.7c2.6,3.8,10.3,3.1,10.3,3.1l45.2-1.5
					c0,0,3.8,0.8,6-5.4c2.1-6.2,9.4-23.4,9.7-25c-0.2-11.5-6.8-80.6-7.2-84.4c-0.5-3.9-3.6-9.2-11-11.7c-7.4-2.5-21.9-7-27.9-6.9
					C119.2,0.3,94.2,9,88,12.4C83.2,15,83.7,21.7,83.7,21.7z"/>
				<path class="st9" d="M165.6,34.4L165.6,34.4c-0.8-8.5-1.4-14.6-1.5-15.6c-0.5-3.9-3.6-9.2-11-11.7c-7.4-2.5-21.9-7-27.9-6.9
					C119.2,0.3,94.2,9,88,12.4c-4.8,2.6-4.3,9.3-4.3,9.3s0.2,6.7,0.5,16.3C84.2,38,116.8,20.4,165.6,34.4z"/>
				<path class="st8" d="M165.6,34.4L165.6,34.4c-0.8-8.5-1.4-14.6-1.5-15.6c-0.5-3.9-3.6-9.2-11-11.7C145.6,4.6,129.9,0,124.6,0
					c-6,0-30.4,9-36.6,12.4c-4.8,2.6-4.3,9.3-4.3,9.3s0.2,6.7,0.5,16.3C84.2,38,116.8,20.4,165.6,34.4z"/>
				<path class="st10" d="M165.6,34.4c-0.8-8.5-1.4-14.6-1.5-15.6c-0.5-3.9-3.6-9.2-11-11.7C145.6,4.6,129.9,0,124.6,0
					c0,0,0,0-0.1,0l1.1,29C137.1,28.8,150.6,30.1,165.6,34.4z"/>
				<g>
					<g>
						<path class="st4" d="M92.7,43c-2.5,0.1-4.6-2.4-4.7-5.5l-0.4-13.2c-0.1-3.1,1.4-4.9,4.4-5.8l24.7-6.1c2.6-0.6,4.6,2.4,4.7,5.5
							l0.4,13.2c0.1,3.1-1.9,5.7-4.4,5.8L92.7,43z"/>
						<path class="st11" d="M118.2,36.9l-0.8-24.4c-0.3,0-0.5,0-0.8,0.1l-3.6,0.9l0.6,24.5l3.8-0.9C117.7,37,118,36.9,118.2,36.9z"
							/>
						<polygon class="st11" points="110.8,14 108.5,14.6 108.8,39.1 111.3,38.5 						"/>
						<path class="st12" d="M89.3,38.5l-0.4-13.2c-0.1-3.1,1.4-4.9,4.4-5.8l24.7-6c0.6-0.1,1.1-0.1,1.6,0.1c-0.8-0.8-1.8-1.3-3-1
							l-24.7,6.1c-3,0.8-4.5,2.7-4.4,5.8L88,37.6c0.1,2.4,1.4,4.5,3.2,5.2C90.1,41.8,89.4,40.2,89.3,38.5z"/>
					</g>
					<g>
						<path class="st4" d="M158.5,40.7c2.5-0.1,4.3-2.8,4.2-5.9L162,21.7c-0.2-3.1-1.8-4.8-4.7-5.4l-24.6-4
							c-2.6-0.4-4.3,2.8-4.2,5.9l0.6,13.2c0.2,3.1,2.3,5.5,4.7,5.4L158.5,40.7z"/>
						<polygon class="st11" points="150.6,15.2 148.2,14.8 148.8,39.1 151.1,39.5 						"/>
						<path class="st11" d="M158.6,40.7l-1.1-24.4c-0.1,0-0.1,0-0.1,0l-4.5-0.7l0.8,24.4L158.6,40.7
							C158.5,40.7,158.6,40.7,158.6,40.7z"/>
						<path class="st12" d="M161.4,35.9l-0.6-13.2c-0.2-3.1-1.8-4.8-4.7-5.4l-24.6-4c-0.6-0.1-1.1,0-1.6,0.2
							c0.7-0.9,1.7-1.4,2.8-1.2l24.6,4c3,0.6,4.6,2.3,4.7,5.4l0.6,13.2c0.1,2.4-1,4.6-2.7,5.4C160.9,39.2,161.5,37.6,161.4,35.9z"/>
					</g>
				</g>
				<g>
					<path class="st13" d="M164.1,19c0-0.1,0-0.2,0-0.2C164.1,18.9,164.1,18.9,164.1,19z"/>
					<path class="st14" d="M164.1,19.1c0.2,1.6,0.7,7.4,1.5,15.3C116.8,20.4,84.2,38,84.2,38c0,0,0.9,28,1.6,51.2l84.4-1.1
						C168.4,64.5,164.6,23.7,164.1,19.1z"/>
					<path class="st14" d="M165.4,32.4C165.4,32.4,165.4,32.4,165.4,32.4C165.4,32.4,165.4,32.4,165.4,32.4z"/>
					<path class="st14" d="M165.4,32.4c-0.2-2.3-0.4-4.4-0.6-6.2C164.9,28,165.1,30.1,165.4,32.4z"/>
					<path class="st14" d="M165.4,33.2c0-0.2,0-0.5-0.1-0.7C165.4,32.7,165.4,32.9,165.4,33.2z"/>
					<path class="st14" d="M164.8,26.1c0-0.2,0-0.4-0.1-0.6C164.7,25.8,164.8,26,164.8,26.1z"/>
					<path class="st14" d="M164.7,25.6c0-0.1,0-0.1,0-0.2C164.7,25.4,164.7,25.5,164.7,25.6z"/>
					<path class="st14" d="M164.6,24.4c-0.3-2.6-0.4-4.5-0.5-5.3C164.2,19.9,164.3,21.7,164.6,24.4z"/>
					<path class="st14" d="M164.7,25.4c0-0.3-0.1-0.7-0.1-1C164.6,24.7,164.7,25,164.7,25.4z"/>
					<path class="st14" d="M164.6,24.4C164.6,24.4,164.6,24.4,164.6,24.4C164.6,24.4,164.6,24.4,164.6,24.4z"/>
					<g>
						<path class="st15" d="M164.7,25.6c0-0.1,0-0.1,0-0.2C164.7,25.4,164.7,25.5,164.7,25.6z"/>
						<path class="st15" d="M164.7,25.4c0-0.3-0.1-0.7-0.1-1C164.6,24.7,164.7,25,164.7,25.4z"/>
						<path class="st15" d="M164.8,26.1c0-0.2,0-0.4-0.1-0.6C164.7,25.8,164.8,26,164.8,26.1z"/>
						<path class="st15" d="M165.4,33.2c0-0.2,0-0.5-0.1-0.7C165.4,32.7,165.4,32.9,165.4,33.2z"/>
						<path class="st15" d="M165.4,32.4c-0.2-2.3-0.4-4.4-0.6-6.2C164.9,28,165.1,30.1,165.4,32.4z"/>
						<path class="st15" d="M165.4,32.4C165.4,32.4,165.4,32.4,165.4,32.4C165.4,32.4,165.4,32.4,165.4,32.4z"/>
						<path class="st15" d="M164.6,24.4C164.6,24.4,164.6,24.4,164.6,24.4C164.6,24.4,164.6,24.4,164.6,24.4z"/>
						<path class="st15" d="M165.6,36.4c0-0.4-0.1-0.9-0.1-1.3c0-0.2,0-0.5-0.1-0.7c0,0,0,0,0-0.1c0,0,0,0,0,0
							c-48.7-14-81.1,3.6-81.1,3.6c0,0,0,0.7,0.1,2C85.7,39.3,117.8,22.7,165.6,36.4z"/>
						<path class="st15" d="M165.4,35.2c1.4,14.6,3.4,37,4.7,52.9l0.2,0c-1.2-16-3.4-39.8-4.8-55c0,0.4,0.1,0.8,0.1,1.3
							c-0.1,0-0.1,0-0.2-0.1c0,0,0,0,0,0c0,0,0,0,0,0.1C165.4,34.7,165.4,34.9,165.4,35.2z"/>
						<path class="st15" d="M164.6,24.4c-0.3-2.6-0.4-4.5-0.5-5.3C164.2,19.9,164.3,21.7,164.6,24.4z"/>
					</g>
				</g>
				<g>
					<circle class="st4" cx="126.4" cy="43.2" r="10.7"/>
					<path class="st15" d="M127,32.2c-5.9,0-10.7,4.8-10.7,10.7c0,5.9,4.8,10.7,10.7,10.7c5.9,0,10.7-4.8,10.7-10.7
						C137.7,37,132.9,32.2,127,32.2z M127,49.5c-3.7,0-6.6-3-6.6-6.6c0-3.7,3-6.6,6.6-6.6c3.7,0,6.6,3,6.6,6.6
						C133.6,46.5,130.7,49.5,127,49.5z"/>
				</g>
				<path class="st16" d="M86.3,104.4c8.1,14.1,10.8,23.7,13.9,27.7c2.6,3.8,10.3,3.1,10.3,3.1l45.2-1.5c0,0,3.8,0.8,6-5.4
					c2.1-6.2,9.4-23.4,9.7-25C116,112.1,86.3,104.4,86.3,104.4z"/>
				<path class="st17" d="M86.3,104.4c8.1,14.1,24.2,30.8,24.2,30.8l43.7-1.4c0,0,16.9-28.9,17.1-30.5
					C116,112.1,86.3,104.4,86.3,104.4z"/>
				<path class="st15" d="M170.5,106.4c0.4-1.7,0.7-2.8,0.8-3.2c-55.2,8.9-85,1.2-85,1.2c0.7,1.2,1.4,2.4,2,3.5
					C95.8,109.5,124,113.8,170.5,106.4z"/>
				<path class="st18" d="M143.2,88.5l27.1-0.3c-0.6-7.9-1-12.7-1.9-22.5C157.3,66.9,145.8,69,143.2,88.5z"/>
				<path class="st19" d="M168.6,67.8c-0.1-0.7-0.1-1.4-0.2-2.2c-11.8,1.3-23,3.1-25.7,22.9l1.4,0C147.2,71,157.5,69,168.6,67.8z"/>
				<path class="st18" d="M116.8,88.8l-30.8,0.7l-0.7-23.3C91.6,66.4,114.4,66,116.8,88.8z"/>
				<path class="st19" d="M115.5,88.8l1.2,0C114.4,66,91.6,66.4,85.2,66.2l0.1,2C92.5,68.4,112.3,69,115.5,88.8z"/>
				<g>
					<path class="st4" d="M138.7,87c0.1,2.4-1.8,4.4-4.1,4.5l-10.1,0.4c-2.4,0.1-4.4-1.8-4.5-4.1l-1-24.7c-0.1-2.4,1.8-4.4,4.1-4.5
						l10.1-0.4c2.4-0.1,4.4,1.8,4.5,4.1L138.7,87z"/>
					<path class="st15" d="M139.3,87c0.1,2.4-1.8,4.4-4.1,4.5L125,91.9c-2.4,0.1-4.4-1.8-4.5-4.1l-1-24.7c-0.1-2.4,1.8-4.4,4.1-4.5
						l10.1-0.4c2.4-0.1,4.4,1.8,4.5,4.1L139.3,87z"/>
					<g>
						<polygon class="st4" points="136.2,60.7 121.8,61.2 121.9,63.2 136.2,62.7 						"/>
						<polygon class="st4" points="136.3,64.4 122,64.9 122.1,66.9 136.4,66.4 						"/>
						<polygon class="st4" points="136.5,68.1 122.1,68.6 122.2,70.7 136.5,70.1 						"/>
						<polygon class="st4" points="136.6,71.8 122.3,72.3 122.3,74.4 136.7,73.9 						"/>
						<polygon class="st4" points="136.8,75.5 122.4,76.1 122.5,78.1 136.8,77.6 						"/>
						<polygon class="st4" points="136.9,79.3 122.6,79.8 122.6,81.8 137,81.3 						"/>
						<polygon class="st4" points="137.1,83 122.7,83.5 122.8,85.5 137.1,85 						"/>
						<polygon class="st4" points="137.2,86.7 122.8,87.2 122.9,89.2 137.3,88.7 						"/>
					</g>
				</g>
				<g>
					<path class="st19" d="M156.6,62.9c-0.8,0-1.3-0.7-1.3-1.4l0.1-3.2c0-0.8,0.7-1.3,1.4-1.3l7.9,0.3c0.8,0,1.3,0.7,1.3,1.4
						l-0.1,3.2c0,0.8-0.7,1.3-1.4,1.3L156.6,62.9z"/>
					<path class="st20" d="M164.5,64.2L164.5,64.2l-8-0.3c-0.6,0-1.2-0.3-1.6-0.7c-0.4-0.4-0.6-1-0.6-1.6l0.1-3.2
						c0.1-1.2,1-2.2,2.3-2.2l0.1,0l7.9,0.3c0.6,0,1.2,0.3,1.6,0.7c0.4,0.4,0.6,1,0.6,1.6l-0.1,3.2C166.7,63.2,165.7,64.2,164.5,64.2
						z M156.8,57.9c-0.3,0-0.5,0.2-0.5,0.5l-0.1,3.2c0,0.1,0,0.2,0.1,0.3c0.1,0.1,0.2,0.1,0.3,0.2l7.9,0.3l0,0.9v-0.9
						c0.3,0,0.5-0.2,0.5-0.5l0.1-3.2c0-0.1,0-0.2-0.1-0.3c-0.1-0.1-0.2-0.1-0.3-0.2L156.8,57.9C156.8,57.9,156.8,57.9,156.8,57.9z"
						/>
				</g>
				<g>
					<path class="st19" d="M89.3,64.1c-0.8,0.1-1.4-0.5-1.5-1.2l-0.4-3.2c-0.1-0.8,0.5-1.4,1.2-1.5l7.8-0.9c0.8-0.1,1.4,0.5,1.5,1.2
						l0.4,3.2c0.1,0.8-0.5,1.4-1.2,1.5L89.3,64.1z"/>
					<path class="st20" d="M89.1,65c-1.2,0-2.1-0.9-2.3-2l-0.4-3.2c-0.1-0.6,0.1-1.2,0.5-1.7c0.4-0.5,0.9-0.8,1.5-0.8l7.8-0.9
						c1.3-0.1,2.4,0.8,2.5,2l0.4,3.2c0.1,1.2-0.7,2.4-2,2.5L89.4,65C89.3,65,89.2,65,89.1,65z M96.6,58.2l-7.9,0.9
						c-0.1,0-0.2,0.1-0.3,0.2c-0.1,0.1-0.1,0.2-0.1,0.4l0.4,3.2c0,0.2,0.2,0.4,0.5,0.4l0.1,0l7.8-0.9c0.3,0,0.4-0.3,0.4-0.5
						l-0.4-3.2C97,58.3,96.8,58.2,96.6,58.2z"/>
				</g>
				<g>
					<path class="st8" d="M82.2,29.2c0,1.3-1.1,2.4-2.4,2.4h-2.9c-1.3,0-2.4-1.1-2.4-2.4v-5.3c0-1.3,1.1-2.4,2.4-2.4h2.9
						c1.3,0,2.4,1.1,2.4,2.4V29.2z"/>
					<path class="st15" d="M87,26.6c0,0.6-0.4,1-1,1h-5.7c-0.6,0-1-0.4-1-1l0,0c0-0.6,0.4-1,1-1H86C86.5,25.6,87,26.1,87,26.6
						L87,26.6z"/>
				</g>
				<g>
					<path class="st8" d="M167.9,27.8c0.1,1.3,1.1,2.3,2.4,2.3l2.9-0.1c1.3-0.1,2.3-1.1,2.3-2.4l-0.2-5.3c-0.1-1.3-1.1-2.3-2.4-2.3
						L170,20c-1.3,0.1-2.3,1.1-2.3,2.4L167.9,27.8z"/>
					<path class="st15" d="M163,25.4c0,0.6,0.5,1,1,1l5.7-0.2c0.6,0,1-0.5,1-1l0,0c0-0.6-0.5-1-1-1l-5.7,0.2
						C163.4,24.4,163,24.8,163,25.4L163,25.4z"/>
				</g>
				<g>
					<path class="st4" d="M142.8,129.5c0,0.6-0.5,1.1-1.1,1.1l-20.8,0.5c-0.6,0-1.1-0.5-1.1-1.1l-0.1-5.3c0-0.6,0.5-1.1,1.1-1.1
						l20.8-0.5c0.6,0,1.1,0.5,1.1,1.1L142.8,129.5z"/>
					<path class="st21" d="M142.6,124.2c0-0.6-0.5-1.1-1.1-1.1l0.1,5.3c0,0.6-0.5,1.1-1.1,1.1l-20.8,0.5c0,0,0,0,0,0v0
						c0,0.6,0.5,1.1,1.1,1.1l20.8-0.5c0.6,0,1.1-0.5,1.1-1.1L142.6,124.2z"/>
				</g>
				<g>
					<path class="st4" d="M165.6,92.6c0,0.4-0.3,0.7-0.7,0.8l-18.7,0.6c-0.4,0-0.7-0.3-0.8-0.7l0,0c0-0.4,0.3-0.7,0.7-0.8l18.7-0.6
						C165.2,91.8,165.6,92.2,165.6,92.6L165.6,92.6z"/>
					<path class="st4" d="M165.7,95c0,0.4-0.3,0.7-0.7,0.8l-18.7,0.6c-0.4,0-0.7-0.3-0.8-0.7l0,0c0-0.4,0.3-0.7,0.7-0.8l18.7-0.6
						C165.3,94.3,165.7,94.6,165.7,95L165.7,95z"/>
					<path class="st4" d="M165.8,97.5c0,0.4-0.3,0.7-0.7,0.8l-18.7,0.6c-0.4,0-0.7-0.3-0.8-0.7l0,0c0-0.4,0.3-0.7,0.7-0.8l18.7-0.6
						C165.4,96.8,165.8,97.1,165.8,97.5L165.8,97.5z"/>
					<path class="st4" d="M165.8,100c0,0.4-0.3,0.7-0.7,0.8l-18.7,0.6c-0.4,0-0.7-0.3-0.8-0.7l0,0c0-0.4,0.3-0.7,0.7-0.8l18.7-0.6
						C165.5,99.3,165.8,99.6,165.8,100L165.8,100z"/>
				</g>
				<g>
					<path class="st4" d="M91.6,93.7c0,0.4,0.3,0.7,0.7,0.7l18.8,0.4c0.4,0,0.7-0.3,0.7-0.7l0,0c0-0.4-0.3-0.7-0.7-0.7L92.4,93
						C92,93,91.6,93.3,91.6,93.7L91.6,93.7z"/>
					<path class="st4" d="M91.6,96.2c0,0.4,0.3,0.7,0.7,0.7l18.8,0.4c0.4,0,0.7-0.3,0.7-0.7l0,0c0-0.4-0.3-0.7-0.7-0.7l-18.8-0.4
						C91.9,95.5,91.6,95.8,91.6,96.2L91.6,96.2z"/>
					<path class="st4" d="M91.5,98.7c0,0.4,0.3,0.7,0.7,0.7l18.8,0.4c0.4,0,0.7-0.3,0.7-0.7l0,0c0-0.4-0.3-0.7-0.7-0.7L92.3,98
						C91.9,97.9,91.5,98.3,91.5,98.7L91.5,98.7z"/>
					<path class="st4" d="M91.5,101.1c0,0.4,0.3,0.7,0.7,0.7l18.8,0.4c0.4,0,0.7-0.3,0.7-0.7l0,0c0-0.4-0.3-0.7-0.7-0.7l-18.8-0.4
						C91.8,100.4,91.5,100.7,91.5,101.1L91.5,101.1z"/>
				</g>
				<g>
					<circle class="st4" cx="161" cy="79.4" r="7.7"/>
					<circle class="st19" cx="161.5" cy="79.1" r="5.3"/>
					<path class="st15" d="M161.5,71.5c-4.2,0-7.7,3.4-7.7,7.7c0,4.2,3.4,7.7,7.7,7.7c4.2,0,7.7-3.4,7.7-7.7
						C169.1,74.9,165.7,71.5,161.5,71.5z M161.5,83.9c-2.6,0-4.8-2.1-4.8-4.8c0-2.6,2.1-4.8,4.8-4.8c2.6,0,4.8,2.1,4.8,4.8
						C166.2,81.8,164.1,83.9,161.5,83.9z"/>
				</g>
				<g>
					<circle class="st4" cx="97.2" cy="80.6" r="7.7"/>
					<circle class="st19" cx="97.6" cy="80.4" r="5.3"/>
					<path class="st15" d="M97.6,72.7c-4.2,0-7.7,3.4-7.7,7.7s3.4,7.7,7.7,7.7c4.2,0,7.7-3.4,7.7-7.7S101.9,72.7,97.6,72.7z
						 M97.6,85.2c-2.6,0-4.8-2.1-4.8-4.8s2.1-4.8,4.8-4.8c2.6,0,4.8,2.1,4.8,4.8S100.3,85.2,97.6,85.2z"/>
				</g>
			</g>
		</g>
	</g>
</g>
</svg>
