<!-- Generator: Adobe Illustrator 21.0.2, SVG Export Plug-In  -->
<svg version="1.1"
	 xmlns="http://www.w3.org/2000/svg" xmlns:xlink="http://www.w3.org/1999/xlink" xmlns:a="http://ns.adobe.com/AdobeSVGViewerExtensions/3.0/"
	 x="0px" y="0px" width="175.8px" height="81.7px" viewBox="0 0 175.8 81.7" style="enable-background:new 0 0 175.8 81.7;"
	 xml:space="preserve">
<style type="text/css">
	.st0{fill:#E30613;}
</style>
<defs>
</defs>
<g>
	<g>
		<path class="st0" d="M1.7,26.2c7.6,2.5,16.4,1.1,23,6.7c1.5,1.3,2.9,3.3,5.1,3.5c1.8,0.2,5.2-1.1,6.3-2.6c1.2-1.6,0.7-3.1-0.1-4.7
			c-0.9-1.9-2.1-2.8-1.1-4.9c1-1.9,4.1-2.6,6.1-3.1c7.5-2,15.3-0.5,22.8-3.2c4.2-1.5,7.5-4.3,11.9-5.4c4.2-1.1,8.4-0.3,12.6-1.2
			c3-0.7,5.1-2.6,7.7-4C101,4.7,106.5,5,111.7,6c6.6,1.2,14.2,6.9,18.8,11.7c2.8,2.9,4.4,5.2,6.1,8.8c1.7,3.7,3.6,7.3,5.4,11
			c3.8,7.8,6.9,16.4,12.7,23c5.8,6.7,11.3,13.6,16.8,20.4c1.2,1.5,3.8,0.6,4.2-1.1c0-0.1,0.1-0.2,0.1-0.3c0.7-3.1-4.1-4.5-4.8-1.3
			c0,0.1-0.1,0.2-0.1,0.3c1.4-0.4,2.8-0.7,4.2-1.1c-4.4-5.5-8.9-10.8-13.2-16.4c-2.3-3-5.1-5.5-7-8.8c-1.8-3.1-3.1-6.4-4.6-9.6
			c-3.2-6.9-7-13.6-9.7-20.6c-1.8-4.5-6.9-8.9-10.8-11.8c-10-7.4-22.5-13.9-35-7.9c-3.4,1.6-5.6,4.1-9.6,4.3
			c-3.7,0.2-7,0.2-10.7,1.1c-3.2,0.8-5.9,2.2-8.8,3.8c-4.2,2.3-9,3.5-13.8,3.8c-6.5,0.4-13.7,0-19.4,4c-2,1.4-3,3.4-3,5.9
			c0,1.4,0.2,3,0.8,4.3c0.3,0.7,1.6,1.9,1.6,2.6c0.4-0.7,0.8-1.4,1.2-2.2c-2.2,1.6-2.9,1.1-4.8-0.6c-2.4-2.1-4.4-3.4-7.5-4.3
			c-3-0.9-6.1-1.7-9.2-2.3c-2.6-0.5-5.9-0.5-8.5-1.4C0,20.4-1.3,25.2,1.7,26.2L1.7,26.2z"/>
	</g>
</g>
</svg>
